<mxfile host="app.diagrams.net" modified="2021-09-01T08:03:27.830Z" agent="5.0 (Windows NT 10.0; Win64; x64) AppleWebKit/537.36 (KHTML, like Gecko) Chrome/92.0.4515.159 Safari/537.36" etag="0McbXsdZ4R2cBkcmng0G" version="15.0.4" type="github">
  <diagram id="vi9OtTSJ6h7ETVfdt0IN" name="Page-1">
    <mxGraphModel dx="1022" dy="436" grid="1" gridSize="10" guides="1" tooltips="1" connect="1" arrows="1" fold="1" page="1" pageScale="1" pageWidth="827" pageHeight="1169" math="0" shadow="0">
      <root>
        <mxCell id="0" />
        <mxCell id="1" parent="0" />
        <mxCell id="rOyOuV1q2P_qyh19D87B-39" style="edgeStyle=orthogonalEdgeStyle;rounded=0;orthogonalLoop=1;jettySize=auto;html=1;exitX=1;exitY=0.5;exitDx=0;exitDy=0;entryX=0;entryY=0.5;entryDx=0;entryDy=0;" edge="1" parent="1" source="rOyOuV1q2P_qyh19D87B-1" target="rOyOuV1q2P_qyh19D87B-8">
          <mxGeometry relative="1" as="geometry" />
        </mxCell>
        <mxCell id="rOyOuV1q2P_qyh19D87B-1" value="" style="rounded=0;whiteSpace=wrap;html=1;" vertex="1" parent="1">
          <mxGeometry x="150" y="500" width="120" height="60" as="geometry" />
        </mxCell>
        <mxCell id="rOyOuV1q2P_qyh19D87B-28" style="edgeStyle=orthogonalEdgeStyle;rounded=0;orthogonalLoop=1;jettySize=auto;html=1;exitX=0.5;exitY=1;exitDx=0;exitDy=0;entryX=0.5;entryY=1;entryDx=0;entryDy=0;" edge="1" parent="1" source="rOyOuV1q2P_qyh19D87B-2" target="rOyOuV1q2P_qyh19D87B-6">
          <mxGeometry relative="1" as="geometry">
            <Array as="points">
              <mxPoint x="140" y="720" />
              <mxPoint x="450" y="720" />
            </Array>
          </mxGeometry>
        </mxCell>
        <mxCell id="rOyOuV1q2P_qyh19D87B-2" value="" style="rounded=0;whiteSpace=wrap;html=1;" vertex="1" parent="1">
          <mxGeometry x="80" y="620" width="120" height="60" as="geometry" />
        </mxCell>
        <mxCell id="rOyOuV1q2P_qyh19D87B-5" value="" style="rounded=0;whiteSpace=wrap;html=1;" vertex="1" parent="1">
          <mxGeometry x="230" y="620" width="120" height="60" as="geometry" />
        </mxCell>
        <mxCell id="rOyOuV1q2P_qyh19D87B-25" style="edgeStyle=orthogonalEdgeStyle;rounded=0;orthogonalLoop=1;jettySize=auto;html=1;entryX=0.439;entryY=1;entryDx=0;entryDy=0;entryPerimeter=0;" edge="1" parent="1" source="rOyOuV1q2P_qyh19D87B-6" target="rOyOuV1q2P_qyh19D87B-5">
          <mxGeometry relative="1" as="geometry">
            <Array as="points">
              <mxPoint x="450" y="700" />
              <mxPoint x="283" y="700" />
            </Array>
          </mxGeometry>
        </mxCell>
        <mxCell id="rOyOuV1q2P_qyh19D87B-35" style="edgeStyle=orthogonalEdgeStyle;rounded=0;orthogonalLoop=1;jettySize=auto;html=1;exitX=0.5;exitY=1;exitDx=0;exitDy=0;entryX=0.5;entryY=1;entryDx=0;entryDy=0;" edge="1" parent="1" source="rOyOuV1q2P_qyh19D87B-6" target="rOyOuV1q2P_qyh19D87B-7">
          <mxGeometry relative="1" as="geometry">
            <Array as="points">
              <mxPoint x="450" y="720" />
              <mxPoint x="600" y="720" />
            </Array>
          </mxGeometry>
        </mxCell>
        <mxCell id="rOyOuV1q2P_qyh19D87B-6" value="" style="rounded=0;whiteSpace=wrap;html=1;" vertex="1" parent="1">
          <mxGeometry x="390" y="620" width="120" height="60" as="geometry" />
        </mxCell>
        <mxCell id="rOyOuV1q2P_qyh19D87B-36" style="edgeStyle=orthogonalEdgeStyle;rounded=0;orthogonalLoop=1;jettySize=auto;html=1;entryX=0;entryY=0.5;entryDx=0;entryDy=0;" edge="1" parent="1" source="rOyOuV1q2P_qyh19D87B-7" target="rOyOuV1q2P_qyh19D87B-10">
          <mxGeometry relative="1" as="geometry" />
        </mxCell>
        <mxCell id="rOyOuV1q2P_qyh19D87B-7" value="" style="rounded=0;whiteSpace=wrap;html=1;" vertex="1" parent="1">
          <mxGeometry x="540" y="600" width="120" height="60" as="geometry" />
        </mxCell>
        <mxCell id="rOyOuV1q2P_qyh19D87B-24" style="edgeStyle=orthogonalEdgeStyle;rounded=0;orthogonalLoop=1;jettySize=auto;html=1;exitX=0.5;exitY=1;exitDx=0;exitDy=0;" edge="1" parent="1" source="rOyOuV1q2P_qyh19D87B-8" target="rOyOuV1q2P_qyh19D87B-6">
          <mxGeometry relative="1" as="geometry" />
        </mxCell>
        <mxCell id="rOyOuV1q2P_qyh19D87B-32" style="edgeStyle=orthogonalEdgeStyle;rounded=0;orthogonalLoop=1;jettySize=auto;html=1;entryX=0;entryY=0.5;entryDx=0;entryDy=0;" edge="1" parent="1" source="rOyOuV1q2P_qyh19D87B-8" target="rOyOuV1q2P_qyh19D87B-9">
          <mxGeometry relative="1" as="geometry" />
        </mxCell>
        <mxCell id="rOyOuV1q2P_qyh19D87B-8" value="" style="rounded=0;whiteSpace=wrap;html=1;" vertex="1" parent="1">
          <mxGeometry x="350" y="500" width="120" height="60" as="geometry" />
        </mxCell>
        <mxCell id="rOyOuV1q2P_qyh19D87B-34" style="edgeStyle=orthogonalEdgeStyle;rounded=0;orthogonalLoop=1;jettySize=auto;html=1;exitX=0.5;exitY=1;exitDx=0;exitDy=0;entryX=0.5;entryY=0;entryDx=0;entryDy=0;" edge="1" parent="1" source="rOyOuV1q2P_qyh19D87B-9" target="rOyOuV1q2P_qyh19D87B-7">
          <mxGeometry relative="1" as="geometry" />
        </mxCell>
        <mxCell id="rOyOuV1q2P_qyh19D87B-9" value="" style="rounded=0;whiteSpace=wrap;html=1;" vertex="1" parent="1">
          <mxGeometry x="540" y="500" width="120" height="60" as="geometry" />
        </mxCell>
        <mxCell id="rOyOuV1q2P_qyh19D87B-10" value="" style="rounded=1;whiteSpace=wrap;html=1;" vertex="1" parent="1">
          <mxGeometry x="730" y="560" width="120" height="70" as="geometry" />
        </mxCell>
        <mxCell id="rOyOuV1q2P_qyh19D87B-21" style="edgeStyle=orthogonalEdgeStyle;rounded=0;orthogonalLoop=1;jettySize=auto;html=1;exitX=0;exitY=0.5;exitDx=0;exitDy=0;entryX=0.5;entryY=0;entryDx=0;entryDy=0;" edge="1" parent="1" source="rOyOuV1q2P_qyh19D87B-11" target="rOyOuV1q2P_qyh19D87B-1">
          <mxGeometry relative="1" as="geometry" />
        </mxCell>
        <mxCell id="rOyOuV1q2P_qyh19D87B-23" style="edgeStyle=orthogonalEdgeStyle;rounded=0;orthogonalLoop=1;jettySize=auto;html=1;exitX=1;exitY=0.5;exitDx=0;exitDy=0;entryX=0.5;entryY=0;entryDx=0;entryDy=0;" edge="1" parent="1" source="rOyOuV1q2P_qyh19D87B-11" target="rOyOuV1q2P_qyh19D87B-8">
          <mxGeometry relative="1" as="geometry" />
        </mxCell>
        <mxCell id="rOyOuV1q2P_qyh19D87B-11" value="" style="rounded=0;whiteSpace=wrap;html=1;" vertex="1" parent="1">
          <mxGeometry x="250" y="380" width="120" height="60" as="geometry" />
        </mxCell>
        <mxCell id="rOyOuV1q2P_qyh19D87B-12" value="DC Motor" style="text;html=1;strokeColor=none;fillColor=none;align=center;verticalAlign=middle;whiteSpace=wrap;rounded=0;" vertex="1" parent="1">
          <mxGeometry x="580" y="620" width="40" height="20" as="geometry" />
        </mxCell>
        <mxCell id="rOyOuV1q2P_qyh19D87B-13" value="MCU" style="text;html=1;strokeColor=none;fillColor=none;align=center;verticalAlign=middle;whiteSpace=wrap;rounded=0;" vertex="1" parent="1">
          <mxGeometry x="390" y="520" width="40" height="20" as="geometry" />
        </mxCell>
        <mxCell id="rOyOuV1q2P_qyh19D87B-14" value="Accelerometer" style="text;html=1;strokeColor=none;fillColor=none;align=center;verticalAlign=middle;whiteSpace=wrap;rounded=0;" vertex="1" parent="1">
          <mxGeometry x="190" y="520" width="40" height="20" as="geometry" />
        </mxCell>
        <mxCell id="rOyOuV1q2P_qyh19D87B-15" value="9V, 3200 mah battery" style="text;html=1;strokeColor=none;fillColor=none;align=center;verticalAlign=middle;whiteSpace=wrap;rounded=0;" vertex="1" parent="1">
          <mxGeometry x="120" y="640" width="40" height="20" as="geometry" />
        </mxCell>
        <mxCell id="rOyOuV1q2P_qyh19D87B-17" value="Wheels" style="text;html=1;strokeColor=none;fillColor=none;align=center;verticalAlign=middle;whiteSpace=wrap;rounded=0;" vertex="1" parent="1">
          <mxGeometry x="270" y="640" width="40" height="20" as="geometry" />
        </mxCell>
        <mxCell id="rOyOuV1q2P_qyh19D87B-18" value="Stepper Motors" style="text;html=1;strokeColor=none;fillColor=none;align=center;verticalAlign=middle;whiteSpace=wrap;rounded=0;" vertex="1" parent="1">
          <mxGeometry x="430" y="640" width="40" height="20" as="geometry" />
        </mxCell>
        <mxCell id="rOyOuV1q2P_qyh19D87B-19" value="Opto-isolator Circuit" style="text;html=1;strokeColor=none;fillColor=none;align=center;verticalAlign=middle;whiteSpace=wrap;rounded=0;" vertex="1" parent="1">
          <mxGeometry x="580" y="520" width="40" height="20" as="geometry" />
        </mxCell>
        <mxCell id="rOyOuV1q2P_qyh19D87B-20" value="9V Battery" style="text;html=1;strokeColor=none;fillColor=none;align=center;verticalAlign=middle;whiteSpace=wrap;rounded=0;" vertex="1" parent="1">
          <mxGeometry x="290" y="400" width="40" height="20" as="geometry" />
        </mxCell>
        <mxCell id="rOyOuV1q2P_qyh19D87B-31" value="Carpet Sweeper" style="text;html=1;strokeColor=none;fillColor=none;align=center;verticalAlign=middle;whiteSpace=wrap;rounded=0;" vertex="1" parent="1">
          <mxGeometry x="770" y="585" width="40" height="20" as="geometry" />
        </mxCell>
        <mxCell id="rOyOuV1q2P_qyh19D87B-37" value="3V regulated" style="text;html=1;strokeColor=none;fillColor=none;align=center;verticalAlign=middle;whiteSpace=wrap;rounded=0;" vertex="1" parent="1">
          <mxGeometry x="140" y="420" width="40" height="20" as="geometry" />
        </mxCell>
        <mxCell id="rOyOuV1q2P_qyh19D87B-38" value="9V direct connection" style="text;html=1;strokeColor=none;fillColor=none;align=center;verticalAlign=middle;whiteSpace=wrap;rounded=0;" vertex="1" parent="1">
          <mxGeometry x="430" y="420" width="40" height="20" as="geometry" />
        </mxCell>
        <mxCell id="rOyOuV1q2P_qyh19D87B-40" value="X-Y signal" style="text;html=1;strokeColor=none;fillColor=none;align=center;verticalAlign=middle;whiteSpace=wrap;rounded=0;" vertex="1" parent="1">
          <mxGeometry x="290" y="500" width="40" height="20" as="geometry" />
        </mxCell>
        <mxCell id="rOyOuV1q2P_qyh19D87B-43" style="edgeStyle=orthogonalEdgeStyle;rounded=0;orthogonalLoop=1;jettySize=auto;html=1;exitX=0.5;exitY=1;exitDx=0;exitDy=0;entryX=0.25;entryY=1;entryDx=0;entryDy=0;" edge="1" parent="1" source="rOyOuV1q2P_qyh19D87B-41" target="rOyOuV1q2P_qyh19D87B-8">
          <mxGeometry relative="1" as="geometry" />
        </mxCell>
        <mxCell id="rOyOuV1q2P_qyh19D87B-41" value="Wifi + Bluetooth Module" style="rounded=0;whiteSpace=wrap;html=1;" vertex="1" parent="1">
          <mxGeometry x="80" y="500" width="50" height="60" as="geometry" />
        </mxCell>
      </root>
    </mxGraphModel>
  </diagram>
</mxfile>
